<svg width="40" height="38" viewBox="0 0 40 38" fill="none" xmlns="http://www.w3.org/2000/svg">
<path d="M22.8557 21.157C22.8557 21.5915 22.73 22.0162 22.4945 22.3774C22.2591 22.7386 21.9244 23.0202 21.5328 23.1864C21.1413 23.3527 20.7104 23.3962 20.2948 23.3114C19.8791 23.2267 19.4973 23.0175 19.1976 22.7103C18.8979 22.4031 18.6938 22.0117 18.6111 21.5856C18.5285 21.1595 18.5709 20.7178 18.7331 20.3164C18.8953 19.9151 19.1699 19.572 19.5223 19.3306C19.8747 19.0893 20.289 18.9604 20.7128 18.9604C21.2811 18.9604 21.8262 19.1919 22.228 19.6038C22.6299 20.0158 22.8557 20.5745 22.8557 21.157ZM30.7128 18.9604C30.2889 18.9604 29.8746 19.0893 29.5223 19.3306C29.1699 19.572 28.8952 19.9151 28.733 20.3164C28.5708 20.7178 28.5284 21.1595 28.6111 21.5856C28.6938 22.0117 28.8979 22.4031 29.1975 22.7103C29.4972 23.0175 29.879 23.2267 30.2947 23.3114C30.7104 23.3962 31.1412 23.3527 31.5328 23.1864C31.9243 23.0202 32.259 22.7386 32.4945 22.3774C32.7299 22.0162 32.8556 21.5915 32.8556 21.157C32.8556 20.5745 32.6298 20.0158 32.228 19.6038C31.8261 19.1919 31.2811 18.9604 30.7128 18.9604ZM39.8806 34.2396C40.0257 34.7446 40.0354 35.2803 39.9087 35.7904C39.7819 36.3005 39.5234 36.7662 39.1602 37.1384C38.7971 37.5107 38.3428 37.7757 37.8452 37.9056C37.3476 38.0356 36.825 38.0256 36.3324 37.8768L31.9199 36.5461C30.1804 37.4061 28.2888 37.8956 26.3596 37.985C24.4303 38.0745 22.5033 37.762 20.6952 37.0665C18.8871 36.371 17.2353 35.3069 15.8396 33.9385C14.444 32.5701 13.3336 30.9258 12.5754 29.1051C11.0133 28.9168 9.49292 28.462 8.07718 27.7597L3.6647 29.0904C3.17211 29.2392 2.64951 29.2492 2.15187 29.1192C1.65423 28.9893 1.19995 28.7243 0.836833 28.352C0.473713 27.9798 0.215172 27.5141 0.0884116 27.004C-0.038349 26.4939 -0.0286435 25.9582 0.116507 25.4532L1.41471 20.9301C0.600522 19.174 0.135627 17.2693 0.0471531 15.3271C-0.0413211 13.3849 0.248396 11.444 0.899403 9.61783C1.55041 7.79162 2.54967 6.11658 3.83889 4.69045C5.12811 3.26431 6.68147 2.11562 8.40836 1.3114C10.1352 0.507184 12.0011 0.0635351 13.897 0.0063381C15.7929 -0.0508589 17.681 0.279542 19.451 0.978264C21.221 1.67699 22.8376 2.73004 24.2064 4.07599C25.5752 5.42194 26.6688 7.03384 27.4235 8.81764C29.6799 9.09638 31.8389 9.92296 33.7211 11.2287C35.6034 12.5345 37.1545 14.2818 38.2457 16.3255C39.3369 18.3691 39.9367 20.6502 39.9953 22.9792C40.0538 25.3082 39.5694 27.6179 38.5824 29.7165L39.8806 34.2396ZM11.6593 25.9713C11.306 23.9875 11.3564 21.9502 11.8076 19.9874C12.2587 18.0246 13.1007 16.1785 14.2808 14.565C15.4609 12.9516 16.9536 11.6056 18.6652 10.6115C20.3768 9.61742 22.2704 8.99672 24.2271 8.78836C23.5029 7.44064 22.5269 6.25233 21.3548 5.29127C20.1826 4.33021 18.8373 3.61522 17.3956 3.18713C14.4839 2.32257 11.3565 2.67908 8.70128 4.17824C6.04605 5.6774 4.08054 8.1964 3.23713 11.1811C2.39373 14.1658 2.74151 17.3717 4.20398 20.0935C4.37987 20.4305 4.42024 20.8247 4.31648 21.1918L2.85578 26.2824L7.81289 24.7869C8.17103 24.6806 8.55554 24.7219 8.88431 24.9022C9.75965 25.3816 10.6926 25.741 11.6593 25.9713ZM35.7931 28.8799C37.0854 26.4025 37.4662 23.5315 36.866 20.7903C36.2658 18.0491 34.7247 15.6203 32.5236 13.9466C30.3224 12.2729 27.6078 11.4657 24.8746 11.6723C22.1414 11.8789 19.5716 13.0854 17.6337 15.0719C15.6958 17.0584 14.5188 19.6927 14.3173 22.4944C14.1158 25.2962 14.9032 28.0789 16.536 30.3353C18.1687 32.5916 20.5381 34.1714 23.2122 34.7866C25.8863 35.4019 28.687 35.0115 31.1038 33.6868C31.4326 33.5065 31.8171 33.4651 32.1753 33.5715L37.1413 35.0688L35.6824 29.9874C35.5756 29.6177 35.6154 29.2197 35.7931 28.8799Z" fill="white"/>
</svg>
