<svg preserveAspectRatio="none" overflow="visible" style="display: block;" width="8" height="8" viewBox="0 0 8 8" fill="none" xmlns="http://www.w3.org/2000/svg">
<path id="Vector" d="M4 0C2.93949 0.00116464 1.92275 0.422966 1.17286 1.17286C0.422966 1.92275 0.00116464 2.93949 0 4V7.36C0 7.52974 0.0674283 7.69252 0.187452 7.81255C0.307475 7.93257 0.470261 8 0.64 8H4C5.06087 8 6.07828 7.57857 6.82843 6.82843C7.57857 6.07828 8 5.06087 8 4C8 2.93913 7.57857 1.92172 6.82843 1.17157C6.07828 0.421427 5.06087 0 4 0ZM2.24 4.64C2.14506 4.64 2.05226 4.61185 1.97333 4.55911C1.89439 4.50636 1.83287 4.4314 1.79654 4.34369C1.76021 4.25598 1.7507 4.15947 1.76922 4.06636C1.78774 3.97325 1.83346 3.88772 1.90059 3.82059C1.96772 3.75346 2.05325 3.70774 2.14636 3.68922C2.23947 3.6707 2.33598 3.68021 2.42369 3.71654C2.5114 3.75287 2.58636 3.81439 2.63911 3.89333C2.69185 3.97226 2.72 4.06506 2.72 4.16C2.72 4.2873 2.66943 4.40939 2.57941 4.49941C2.48939 4.58943 2.3673 4.64 2.24 4.64ZM4 4.64C3.90506 4.64 3.81226 4.61185 3.73333 4.55911C3.65439 4.50636 3.59287 4.4314 3.55654 4.34369C3.52021 4.25598 3.5107 4.15947 3.52922 4.06636C3.54774 3.97325 3.59346 3.88772 3.66059 3.82059C3.72772 3.75346 3.81325 3.70774 3.90636 3.68922C3.99947 3.6707 4.09598 3.68021 4.18369 3.71654C4.2714 3.75287 4.34636 3.81439 4.39911 3.89333C4.45185 3.97226 4.48 4.06506 4.48 4.16C4.48 4.2873 4.42943 4.40939 4.33941 4.49941C4.24939 4.58943 4.1273 4.64 4 4.64ZM5.76 4.64C5.66506 4.64 5.57226 4.61185 5.49333 4.55911C5.41439 4.50636 5.35287 4.4314 5.31654 4.34369C5.28021 4.25598 5.2707 4.15947 5.28922 4.06636C5.30774 3.97325 5.35346 3.88772 5.42059 3.82059C5.48772 3.75346 5.57325 3.70774 5.66636 3.68922C5.75947 3.6707 5.85598 3.68021 5.94369 3.71654C6.0314 3.75287 6.10636 3.81439 6.15911 3.89333C6.21185 3.97226 6.24 4.06506 6.24 4.16C6.24 4.2873 6.18943 4.40939 6.09941 4.49941C6.00939 4.58943 5.8873 4.64 5.76 4.64Z" fill="#E7E4E3"/>
</svg>
